<svg width="345" height="54" viewBox="0 0 345 54" fill="none" xmlns="http://www.w3.org/2000/svg">
<g clip-path="url(#clip0_67_43)">
<rect width="345" height="54" rx="10" fill="#1877F2"/>
<g clip-path="url(#clip1_67_43)">
<rect width="24" height="24" transform="translate(15 15)" fill="#1877F2"/>
<path d="M38.5 27.0698C38.5 20.7186 33.3513 15.5698 27 15.5698C20.6487 15.5698 15.5 20.7186 15.5 27.0698C15.5 32.8098 19.7054 37.5674 25.2031 38.4301V30.3941H22.2832V27.0698H25.2031V24.5363C25.2031 21.6541 26.92 20.062 29.5468 20.062C30.805 20.062 32.1211 20.2866 32.1211 20.2866V23.1167H30.671C29.2424 23.1167 28.7969 24.0032 28.7969 24.9126V27.0698H31.9863L31.4765 30.3941H28.7969V38.4301C34.2946 37.5674 38.5 32.8098 38.5 27.0698Z" fill="white"/>
</g>
<path d="M56.02 35V20.34H64.46V21.9H57.86V26.86H63.46V28.42H57.86V35H56.02ZM68.5744 35.26C67.9744 35.26 67.4344 35.14 66.9544 34.9C66.4744 34.66 66.0944 34.3133 65.8144 33.86C65.5477 33.3933 65.4144 32.8333 65.4144 32.18C65.4144 30.9933 65.941 30.0867 66.9944 29.46C68.061 28.82 69.7544 28.3733 72.0744 28.12C72.0744 27.6533 72.0077 27.2133 71.8744 26.8C71.7544 26.3733 71.5344 26.0333 71.2144 25.78C70.8944 25.5133 70.4344 25.38 69.8344 25.38C69.2077 25.38 68.6144 25.5067 68.0544 25.76C67.5077 26 67.0144 26.26 66.5744 26.54L65.8744 25.28C66.2077 25.0667 66.5944 24.8533 67.0344 24.64C67.4744 24.4133 67.9544 24.2267 68.4744 24.08C68.9944 23.9333 69.5477 23.86 70.1344 23.86C71.0144 23.86 71.7277 24.0467 72.2744 24.42C72.8344 24.7933 73.241 25.3133 73.4944 25.98C73.761 26.6333 73.8944 27.4133 73.8944 28.32V35H72.3944L72.2344 33.7H72.1744C71.6677 34.1267 71.1077 34.4933 70.4944 34.8C69.8944 35.1067 69.2544 35.26 68.5744 35.26ZM69.0944 33.78C69.6144 33.78 70.1077 33.66 70.5744 33.42C71.0544 33.18 71.5544 32.8267 72.0744 32.36V29.34C70.861 29.4733 69.8944 29.6667 69.1744 29.92C68.4544 30.16 67.941 30.46 67.6344 30.82C67.3277 31.1667 67.1744 31.58 67.1744 32.06C67.1744 32.6867 67.361 33.1333 67.7344 33.4C68.1077 33.6533 68.561 33.78 69.0944 33.78ZM81.6239 35.26C80.6639 35.26 79.7972 35.04 79.0239 34.6C78.2639 34.1467 77.6572 33.5 77.2039 32.66C76.7639 31.8067 76.5439 30.78 76.5439 29.58C76.5439 28.3667 76.7839 27.34 77.2639 26.5C77.7439 25.6467 78.3839 24.9933 79.1839 24.54C79.9839 24.0867 80.8439 23.86 81.7639 23.86C82.4706 23.86 83.0772 23.9867 83.5839 24.24C84.1039 24.4933 84.5506 24.7933 84.9239 25.14L84.0039 26.34C83.6972 26.06 83.3639 25.8333 83.0039 25.66C82.6572 25.4867 82.2706 25.4 81.8439 25.4C81.1906 25.4 80.6039 25.5733 80.0839 25.92C79.5639 26.2667 79.1572 26.7533 78.8639 27.38C78.5706 28.0067 78.4239 28.74 78.4239 29.58C78.4239 30.4067 78.5639 31.1333 78.8439 31.76C79.1372 32.3867 79.5306 32.8733 80.0239 33.22C80.5306 33.5667 81.1172 33.74 81.7839 33.74C82.2906 33.74 82.7572 33.64 83.1839 33.44C83.6106 33.2267 83.9972 32.9667 84.3439 32.66L85.1439 33.9C84.6506 34.3267 84.1039 34.66 83.5039 34.9C82.9039 35.14 82.2772 35.26 81.6239 35.26ZM91.4119 35.26C90.4385 35.26 89.5585 35.0333 88.7719 34.58C87.9852 34.1267 87.3585 33.48 86.8919 32.64C86.4385 31.7867 86.2119 30.7667 86.2119 29.58C86.2119 28.6867 86.3452 27.8933 86.6119 27.2C86.8785 26.4933 87.2385 25.8933 87.6919 25.4C88.1585 24.8933 88.6852 24.5133 89.2719 24.26C89.8585 23.9933 90.4585 23.86 91.0719 23.86C92.0052 23.86 92.7919 24.0667 93.4319 24.48C94.0719 24.8933 94.5585 25.4867 94.8919 26.26C95.2385 27.02 95.4119 27.92 95.4119 28.96C95.4119 29.16 95.4052 29.3467 95.3919 29.52C95.3785 29.6933 95.3585 29.8533 95.3319 30H88.0119C88.0519 30.7733 88.2252 31.4467 88.5319 32.02C88.8519 32.58 89.2719 33.02 89.7919 33.34C90.3119 33.6467 90.9185 33.8 91.6119 33.8C92.1452 33.8 92.6252 33.7267 93.0519 33.58C93.4919 33.42 93.9185 33.2067 94.3319 32.94L94.9719 34.16C94.5052 34.4667 93.9785 34.7267 93.3919 34.94C92.8052 35.1533 92.1452 35.26 91.4119 35.26ZM87.9919 28.7H93.8119C93.8119 27.6067 93.5719 26.7733 93.0919 26.2C92.6252 25.6133 91.9652 25.32 91.1119 25.32C90.6052 25.32 90.1252 25.4533 89.6719 25.72C89.2319 25.9867 88.8585 26.3667 88.5519 26.86C88.2585 27.3533 88.0719 27.9667 87.9919 28.7ZM102.866 35.26C102.373 35.26 101.853 35.14 101.306 34.9C100.759 34.66 100.253 34.32 99.7861 33.88H99.7061L99.5461 35H98.0861V19.08H99.9261V23.44L99.8461 25.38C100.339 24.9533 100.879 24.5933 101.466 24.3C102.053 24.0067 102.653 23.86 103.266 23.86C104.199 23.86 104.986 24.0933 105.626 24.56C106.266 25.0133 106.753 25.6533 107.086 26.48C107.419 27.3067 107.586 28.28 107.586 29.4C107.586 30.6267 107.359 31.68 106.906 32.56C106.466 33.44 105.886 34.1133 105.166 34.58C104.459 35.0333 103.693 35.26 102.866 35.26ZM102.566 33.72C103.166 33.72 103.699 33.5533 104.166 33.22C104.646 32.8733 105.019 32.38 105.286 31.74C105.553 31.0867 105.686 30.3133 105.686 29.42C105.686 28.62 105.586 27.92 105.386 27.32C105.199 26.7067 104.899 26.2333 104.486 25.9C104.073 25.5667 103.513 25.4 102.806 25.4C102.353 25.4 101.886 25.5267 101.406 25.78C100.926 26.0333 100.433 26.4 99.9261 26.88V32.6C100.393 33.0133 100.859 33.3067 101.326 33.48C101.806 33.64 102.219 33.72 102.566 33.72ZM114.669 35.26C113.789 35.26 112.963 35.04 112.189 34.6C111.416 34.1467 110.796 33.5 110.329 32.66C109.876 31.8067 109.649 30.78 109.649 29.58C109.649 28.3667 109.876 27.34 110.329 26.5C110.796 25.6467 111.416 24.9933 112.189 24.54C112.963 24.0867 113.789 23.86 114.669 23.86C115.336 23.86 115.969 23.9867 116.569 24.24C117.183 24.4933 117.723 24.8667 118.189 25.36C118.656 25.8533 119.023 26.4533 119.289 27.16C119.556 27.8667 119.689 28.6733 119.689 29.58C119.689 30.78 119.456 31.8067 118.989 32.66C118.523 33.5 117.909 34.1467 117.149 34.6C116.389 35.04 115.563 35.26 114.669 35.26ZM114.669 33.74C115.296 33.74 115.843 33.5667 116.309 33.22C116.789 32.8733 117.163 32.3867 117.429 31.76C117.696 31.1333 117.829 30.4067 117.829 29.58C117.829 28.74 117.696 28.0067 117.429 27.38C117.163 26.7533 116.789 26.2667 116.309 25.92C115.843 25.5733 115.296 25.4 114.669 25.4C114.043 25.4 113.489 25.5733 113.009 25.92C112.543 26.2667 112.176 26.7533 111.909 27.38C111.656 28.0067 111.529 28.74 111.529 29.58C111.529 30.4067 111.656 31.1333 111.909 31.76C112.176 32.3867 112.543 32.8733 113.009 33.22C113.489 33.5667 114.043 33.74 114.669 33.74ZM126.798 35.26C125.918 35.26 125.092 35.04 124.318 34.6C123.545 34.1467 122.925 33.5 122.458 32.66C122.005 31.8067 121.778 30.78 121.778 29.58C121.778 28.3667 122.005 27.34 122.458 26.5C122.925 25.6467 123.545 24.9933 124.318 24.54C125.092 24.0867 125.918 23.86 126.798 23.86C127.465 23.86 128.098 23.9867 128.698 24.24C129.312 24.4933 129.852 24.8667 130.318 25.36C130.785 25.8533 131.152 26.4533 131.418 27.16C131.685 27.8667 131.818 28.6733 131.818 29.58C131.818 30.78 131.585 31.8067 131.118 32.66C130.652 33.5 130.038 34.1467 129.278 34.6C128.518 35.04 127.692 35.26 126.798 35.26ZM126.798 33.74C127.425 33.74 127.972 33.5667 128.438 33.22C128.918 32.8733 129.292 32.3867 129.558 31.76C129.825 31.1333 129.958 30.4067 129.958 29.58C129.958 28.74 129.825 28.0067 129.558 27.38C129.292 26.7533 128.918 26.2667 128.438 25.92C127.972 25.5733 127.425 25.4 126.798 25.4C126.172 25.4 125.618 25.5733 125.138 25.92C124.672 26.2667 124.305 26.7533 124.038 27.38C123.785 28.0067 123.658 28.74 123.658 29.58C123.658 30.4067 123.785 31.1333 124.038 31.76C124.305 32.3867 124.672 32.8733 125.138 33.22C125.618 33.5667 126.172 33.74 126.798 33.74ZM134.707 35V19.08H136.507V29.86H136.587L141.187 24.14H143.227L139.607 28.52L143.707 35H141.727L138.547 29.76L136.507 32.14V35H134.707ZM156.395 23.48H160.395V24.84H156.395V23.48ZM156.255 28.02H160.355V29.38H156.255V28.02ZM163.155 18.46H164.755V36.56H163.155V18.46ZM159.515 18.94H161.095V35.64H159.515V18.94ZM155.495 20.76H157.095C157.095 22.3333 156.868 23.8467 156.415 25.3C155.962 26.74 155.235 28.0867 154.235 29.34C153.248 30.58 151.948 31.6867 150.335 32.66L149.355 31.46C150.768 30.6067 151.928 29.6467 152.835 28.58C153.742 27.5 154.408 26.3333 154.835 25.08C155.275 23.8133 155.495 22.4733 155.495 21.06V20.76ZM150.155 20.76H156.135V22.12H150.155V20.76ZM177.433 23.16H181.493V24.54H177.433V23.16ZM180.993 18.46H182.653V29.24H180.993V18.46ZM176.693 29.8C177.947 29.8 179.02 29.9333 179.913 30.2C180.82 30.4667 181.513 30.8533 181.993 31.36C182.473 31.8533 182.713 32.46 182.713 33.18C182.713 34.2467 182.173 35.0733 181.093 35.66C180.027 36.2467 178.56 36.54 176.693 36.54C174.827 36.54 173.353 36.2467 172.273 35.66C171.207 35.0733 170.673 34.2467 170.673 33.18C170.673 32.46 170.913 31.8533 171.393 31.36C171.887 30.8533 172.58 30.4667 173.473 30.2C174.38 29.9333 175.453 29.8 176.693 29.8ZM176.693 31.1C175.787 31.1 175.007 31.18 174.353 31.34C173.7 31.5 173.193 31.7333 172.833 32.04C172.487 32.3467 172.313 32.7267 172.313 33.18C172.313 33.6067 172.487 33.9733 172.833 34.28C173.193 34.5867 173.7 34.8267 174.353 35C175.007 35.16 175.787 35.24 176.693 35.24C177.613 35.24 178.393 35.16 179.033 35C179.687 34.8267 180.187 34.5867 180.533 34.28C180.893 33.9733 181.073 33.6067 181.073 33.18C181.073 32.7267 180.893 32.3467 180.533 32.04C180.187 31.7333 179.687 31.5 179.033 31.34C178.393 31.18 177.613 31.1 176.693 31.1ZM172.373 20.3H173.733V21.76C173.733 22.8667 173.52 23.9067 173.093 24.88C172.68 25.84 172.093 26.6867 171.333 27.42C170.573 28.14 169.693 28.6933 168.693 29.08L167.833 27.76C168.513 27.52 169.127 27.1933 169.673 26.78C170.233 26.3667 170.713 25.8933 171.113 25.36C171.527 24.8267 171.84 24.2533 172.053 23.64C172.267 23.0267 172.373 22.4 172.373 21.76V20.3ZM172.693 20.3H174.053V21.74C174.053 22.5133 174.233 23.2667 174.593 24C174.953 24.7333 175.467 25.38 176.133 25.94C176.8 26.5 177.567 26.94 178.433 27.26L177.593 28.58C176.607 28.22 175.747 27.7 175.013 27.02C174.28 26.3267 173.707 25.5267 173.293 24.62C172.893 23.7133 172.693 22.7533 172.693 21.74V20.3ZM168.353 19.78H178.013V21.14H168.353V19.78ZM194.332 19.62C195.599 19.62 196.725 19.8267 197.712 20.24C198.699 20.6533 199.479 21.2333 200.052 21.98C200.625 22.7267 200.912 23.6 200.912 24.6C200.912 25.6133 200.625 26.4933 200.052 27.24C199.479 27.9867 198.699 28.5667 197.712 28.98C196.725 29.3933 195.599 29.6 194.332 29.6C193.092 29.6 191.972 29.3933 190.972 28.98C189.985 28.5667 189.205 27.9867 188.632 27.24C188.059 26.4933 187.772 25.6133 187.772 24.6C187.772 23.6 188.059 22.7267 188.632 21.98C189.205 21.2333 189.985 20.6533 190.972 20.24C191.972 19.8267 193.092 19.62 194.332 19.62ZM194.332 20.96C193.385 20.96 192.539 21.1133 191.792 21.42C191.045 21.7267 190.452 22.1533 190.012 22.7C189.572 23.2333 189.352 23.8667 189.352 24.6C189.352 25.32 189.572 25.9533 190.012 26.5C190.452 27.0467 191.045 27.4733 191.792 27.78C192.539 28.0867 193.385 28.24 194.332 28.24C195.292 28.24 196.145 28.0867 196.892 27.78C197.639 27.4733 198.225 27.0467 198.652 26.5C199.092 25.9533 199.312 25.32 199.312 24.6C199.312 23.8667 199.092 23.2333 198.652 22.7C198.225 22.1533 197.639 21.7267 196.892 21.42C196.145 21.1133 195.292 20.96 194.332 20.96ZM186.172 32.78H202.572V34.16H186.172V32.78ZM204.57 32.94H220.97V34.32H204.57V32.94ZM211.91 29.08H213.55V33.52H211.91V29.08ZM206.57 19.8H218.93V25.28H208.25V28.9H206.61V23.96H217.29V21.16H206.57V19.8ZM206.61 28.2H219.35V29.56H206.61V28.2ZM227.441 32.94H243.841V34.32H227.441V32.94ZM234.781 29.08H236.421V33.52H234.781V29.08ZM229.441 19.8H241.801V25.28H231.121V28.9H229.481V23.96H240.161V21.16H229.441V19.8ZM229.481 28.2H242.221V29.56H229.481V28.2ZM247.62 20.38H259.26V21.74H247.62V20.38ZM245.84 32.54H262.18V33.92H245.84V32.54ZM258.36 20.38H260V22.2C260 22.96 259.987 23.7733 259.96 24.64C259.947 25.4933 259.893 26.44 259.8 27.48C259.707 28.52 259.547 29.6933 259.32 31L257.64 30.82C257.88 29.5933 258.047 28.4667 258.14 27.44C258.247 26.4133 258.307 25.4667 258.32 24.6C258.347 23.7333 258.36 22.9333 258.36 22.2V20.38ZM277.398 18.48H279.058V31.68H277.398V18.48ZM267.438 34.8H279.618V36.16H267.438V34.8ZM267.438 30.34H269.098V35.26H267.438V30.34ZM269.358 19.74C270.265 19.74 271.072 19.9267 271.778 20.3C272.485 20.6733 273.045 21.2 273.458 21.88C273.872 22.5467 274.078 23.3133 274.078 24.18C274.078 25.0467 273.872 25.82 273.458 26.5C273.045 27.1667 272.485 27.6933 271.778 28.08C271.072 28.4533 270.265 28.64 269.358 28.64C268.465 28.64 267.658 28.4533 266.938 28.08C266.232 27.6933 265.672 27.1667 265.258 26.5C264.845 25.82 264.638 25.0467 264.638 24.18C264.638 23.3133 264.845 22.5467 265.258 21.88C265.672 21.2 266.232 20.6733 266.938 20.3C267.658 19.9267 268.465 19.74 269.358 19.74ZM269.358 21.18C268.772 21.18 268.245 21.3067 267.778 21.56C267.312 21.8133 266.938 22.1667 266.658 22.62C266.392 23.0733 266.258 23.5933 266.258 24.18C266.258 24.78 266.392 25.3067 266.658 25.76C266.938 26.2 267.312 26.5467 267.778 26.8C268.245 27.0533 268.772 27.18 269.358 27.18C269.945 27.18 270.472 27.0533 270.938 26.8C271.418 26.5467 271.792 26.2 272.058 25.76C272.325 25.3067 272.458 24.78 272.458 24.18C272.458 23.5933 272.325 23.0733 272.058 22.62C271.792 22.1667 271.418 21.8133 270.938 21.56C270.472 21.3067 269.945 21.18 269.358 21.18ZM294.897 18.46H296.537V36.56H294.897V18.46ZM296.157 25.9H299.497V27.3H296.157V25.9ZM282.537 21.36H293.197V22.72H282.537V21.36ZM287.957 24.2C288.81 24.2 289.563 24.38 290.217 24.74C290.883 25.1 291.403 25.5933 291.777 26.22C292.163 26.8333 292.357 27.5467 292.357 28.36C292.357 29.1733 292.163 29.8933 291.777 30.52C291.403 31.1467 290.883 31.64 290.217 32C289.563 32.3467 288.81 32.52 287.957 32.52C287.103 32.52 286.343 32.3467 285.677 32C285.023 31.64 284.503 31.1467 284.117 30.52C283.73 29.8933 283.537 29.1733 283.537 28.36C283.537 27.5467 283.73 26.8333 284.117 26.22C284.503 25.5933 285.023 25.1 285.677 24.74C286.343 24.38 287.103 24.2 287.957 24.2ZM287.957 25.58C287.41 25.58 286.923 25.7 286.497 25.94C286.07 26.18 285.73 26.5067 285.477 26.92C285.237 27.3333 285.117 27.8133 285.117 28.36C285.117 28.9067 285.237 29.3933 285.477 29.82C285.73 30.2333 286.07 30.56 286.497 30.8C286.923 31.0267 287.41 31.14 287.957 31.14C288.49 31.14 288.97 31.0267 289.397 30.8C289.823 30.56 290.157 30.2333 290.397 29.82C290.65 29.3933 290.777 28.9067 290.777 28.36C290.777 27.8133 290.65 27.3333 290.397 26.92C290.157 26.5067 289.823 26.18 289.397 25.94C288.97 25.7 288.49 25.58 287.957 25.58ZM287.097 18.68H288.757V21.96H287.097V18.68ZM314.215 18.46H315.875V36.56H314.215V18.46ZM308.915 20.42H310.555C310.555 21.7267 310.395 22.9867 310.075 24.2C309.768 25.4133 309.282 26.5667 308.615 27.66C307.948 28.74 307.082 29.7467 306.015 30.68C304.948 31.6133 303.655 32.4467 302.135 33.18L301.255 31.84C303.002 31 304.442 30.02 305.575 28.9C306.708 27.78 307.548 26.5333 308.095 25.16C308.642 23.7733 308.915 22.28 308.915 20.68V20.42ZM302.095 20.42H309.615V21.76H302.095V20.42Z" fill="white"/>
</g>
<defs>
<clipPath id="clip0_67_43">
<rect width="345" height="54" fill="white"/>
</clipPath>
<clipPath id="clip1_67_43">
<rect width="24" height="24" fill="white" transform="translate(15 15)"/>
</clipPath>
</defs>
</svg>
