<svg width="345" height="54" viewBox="0 0 345 54" fill="none" xmlns="http://www.w3.org/2000/svg">
<g clip-path="url(#clip0_67_50)">
<rect width="345" height="54" rx="10" fill="white"/>
<rect width="24" height="24" transform="translate(15 15)" fill="white"/>
<path fill-rule="evenodd" clip-rule="evenodd" d="M38.04 27.2614C38.04 26.4459 37.9668 25.6618 37.8309 24.9091H27V29.3575H33.1891C32.9225 30.795 32.1123 32.013 30.8943 32.8284V35.7139H34.6109C36.7855 33.7118 38.04 30.7636 38.04 27.2614Z" fill="#4285F4"/>
<path fill-rule="evenodd" clip-rule="evenodd" d="M26.9999 38.4998C30.1049 38.4998 32.7081 37.4701 34.6108 35.7137L30.8942 32.8282C29.8645 33.5182 28.5472 33.926 26.9999 33.926C24.0047 33.926 21.4695 31.903 20.5651 29.1848H16.7231V32.1644C18.6154 35.9228 22.5045 38.4998 26.9999 38.4998Z" fill="#34A853"/>
<path fill-rule="evenodd" clip-rule="evenodd" d="M20.5652 29.1851C20.3352 28.4951 20.2045 27.758 20.2045 27.0001C20.2045 26.2421 20.3352 25.5051 20.5652 24.8151V21.8355H16.7232C15.9443 23.388 15.5 25.1444 15.5 27.0001C15.5 28.8557 15.9443 30.6121 16.7232 32.1646L20.5652 29.1851Z" fill="#FBBC05"/>
<path fill-rule="evenodd" clip-rule="evenodd" d="M26.9999 20.0739C28.6883 20.0739 30.2042 20.6541 31.3961 21.7936L34.6945 18.4952C32.7029 16.6395 30.0997 15.5 26.9999 15.5C22.5045 15.5 18.6154 18.077 16.7231 21.8355L20.5651 24.815C21.4695 22.0968 24.0047 20.0739 26.9999 20.0739Z" fill="#EA4335"/>
<path d="M61.78 35.26C60.4867 35.26 59.34 34.96 58.34 34.36C57.3533 33.76 56.5733 32.8933 56 31.76C55.44 30.6267 55.16 29.2667 55.16 27.68C55.16 26.4933 55.3267 25.4333 55.66 24.5C55.9933 23.5533 56.46 22.7533 57.06 22.1C57.6733 21.4467 58.3867 20.9467 59.2 20.6C60.0133 20.2533 60.9067 20.08 61.88 20.08C62.9067 20.08 63.76 20.2733 64.44 20.66C65.12 21.0333 65.6733 21.44 66.1 21.88L65.1 23.08C64.7267 22.6933 64.2867 22.3667 63.78 22.1C63.2867 21.8333 62.6733 21.7 61.94 21.7C60.9533 21.7 60.0933 21.94 59.36 22.42C58.6267 22.9 58.06 23.5867 57.66 24.48C57.26 25.36 57.06 26.4067 57.06 27.62C57.06 28.86 57.2467 29.9333 57.62 30.84C58.0067 31.7333 58.5667 32.4267 59.3 32.92C60.0333 33.4 60.92 33.64 61.96 33.64C62.48 33.64 62.9733 33.5667 63.44 33.42C63.92 33.26 64.3067 33.0467 64.6 32.78V28.94H61.48V27.4H66.3V33.56C65.82 34.0533 65.1867 34.46 64.4 34.78C63.6267 35.1 62.7533 35.26 61.78 35.26ZM73.8491 35.26C72.9691 35.26 72.1424 35.04 71.3691 34.6C70.5957 34.1467 69.9757 33.5 69.5091 32.66C69.0557 31.8067 68.8291 30.78 68.8291 29.58C68.8291 28.3667 69.0557 27.34 69.5091 26.5C69.9757 25.6467 70.5957 24.9933 71.3691 24.54C72.1424 24.0867 72.9691 23.86 73.8491 23.86C74.5157 23.86 75.1491 23.9867 75.7491 24.24C76.3624 24.4933 76.9024 24.8667 77.3691 25.36C77.8357 25.8533 78.2024 26.4533 78.4691 27.16C78.7357 27.8667 78.8691 28.6733 78.8691 29.58C78.8691 30.78 78.6357 31.8067 78.1691 32.66C77.7024 33.5 77.0891 34.1467 76.3291 34.6C75.5691 35.04 74.7424 35.26 73.8491 35.26ZM73.8491 33.74C74.4757 33.74 75.0224 33.5667 75.4891 33.22C75.9691 32.8733 76.3424 32.3867 76.6091 31.76C76.8757 31.1333 77.0091 30.4067 77.0091 29.58C77.0091 28.74 76.8757 28.0067 76.6091 27.38C76.3424 26.7533 75.9691 26.2667 75.4891 25.92C75.0224 25.5733 74.4757 25.4 73.8491 25.4C73.2224 25.4 72.6691 25.5733 72.1891 25.92C71.7224 26.2667 71.3557 26.7533 71.0891 27.38C70.8357 28.0067 70.7091 28.74 70.7091 29.58C70.7091 30.4067 70.8357 31.1333 71.0891 31.76C71.3557 32.3867 71.7224 32.8733 72.1891 33.22C72.6691 33.5667 73.2224 33.74 73.8491 33.74ZM85.978 35.26C85.098 35.26 84.2713 35.04 83.498 34.6C82.7246 34.1467 82.1046 33.5 81.638 32.66C81.1846 31.8067 80.958 30.78 80.958 29.58C80.958 28.3667 81.1846 27.34 81.638 26.5C82.1046 25.6467 82.7246 24.9933 83.498 24.54C84.2713 24.0867 85.098 23.86 85.978 23.86C86.6446 23.86 87.278 23.9867 87.878 24.24C88.4913 24.4933 89.0313 24.8667 89.498 25.36C89.9646 25.8533 90.3313 26.4533 90.598 27.16C90.8646 27.8667 90.998 28.6733 90.998 29.58C90.998 30.78 90.7646 31.8067 90.298 32.66C89.8313 33.5 89.218 34.1467 88.458 34.6C87.698 35.04 86.8713 35.26 85.978 35.26ZM85.978 33.74C86.6046 33.74 87.1513 33.5667 87.618 33.22C88.098 32.8733 88.4713 32.3867 88.738 31.76C89.0046 31.1333 89.138 30.4067 89.138 29.58C89.138 28.74 89.0046 28.0067 88.738 27.38C88.4713 26.7533 88.098 26.2667 87.618 25.92C87.1513 25.5733 86.6046 25.4 85.978 25.4C85.3513 25.4 84.798 25.5733 84.318 25.92C83.8513 26.2667 83.4846 26.7533 83.218 27.38C82.9646 28.0067 82.838 28.74 82.838 29.58C82.838 30.4067 82.9646 31.1333 83.218 31.76C83.4846 32.3867 83.8513 32.8733 84.318 33.22C84.798 33.5667 85.3513 33.74 85.978 33.74ZM97.5469 40C96.6669 40 95.8869 39.8867 95.2069 39.66C94.5269 39.4333 94.0002 39.1 93.6269 38.66C93.2535 38.2333 93.0669 37.7133 93.0669 37.1C93.0669 36.6333 93.2069 36.18 93.4869 35.74C93.7669 35.3133 94.1602 34.9467 94.6669 34.64V34.54C94.3869 34.3667 94.1535 34.1333 93.9669 33.84C93.7802 33.5467 93.6869 33.1867 93.6869 32.76C93.6869 32.3067 93.8135 31.9067 94.0669 31.56C94.3335 31.2133 94.6069 30.94 94.8869 30.74V30.66C94.5269 30.38 94.2002 29.9867 93.9069 29.48C93.6135 28.9733 93.4669 28.3933 93.4669 27.74C93.4669 26.94 93.6535 26.2533 94.0269 25.68C94.4002 25.0933 94.8935 24.6467 95.5069 24.34C96.1335 24.02 96.8069 23.86 97.5269 23.86C97.8469 23.86 98.1335 23.8867 98.3869 23.94C98.6535 23.9933 98.8802 24.06 99.0669 24.14H102.847V25.54H100.627C100.894 25.7933 101.107 26.1133 101.267 26.5C101.427 26.8867 101.507 27.3133 101.507 27.78C101.507 28.5533 101.327 29.2267 100.967 29.8C100.62 30.36 100.147 30.7933 99.5469 31.1C98.9469 31.4067 98.2735 31.56 97.5269 31.56C97.2735 31.56 97.0002 31.5267 96.7069 31.46C96.4269 31.3933 96.1669 31.3 95.9269 31.18C95.7269 31.34 95.5602 31.52 95.4269 31.72C95.2935 31.92 95.2269 32.1733 95.2269 32.48C95.2269 32.8133 95.3602 33.0933 95.6269 33.32C95.8935 33.5467 96.3935 33.66 97.1269 33.66H99.2669C100.52 33.66 101.46 33.8667 102.087 34.28C102.727 34.6933 103.047 35.3467 103.047 36.24C103.047 36.9067 102.82 37.5267 102.367 38.1C101.914 38.6733 101.274 39.1333 100.447 39.48C99.6335 39.8267 98.6669 40 97.5469 40ZM97.5269 30.32C97.9535 30.32 98.3402 30.2133 98.6869 30C99.0469 29.7867 99.3269 29.4867 99.5269 29.1C99.7402 28.7133 99.8469 28.26 99.8469 27.74C99.8469 27.2067 99.7402 26.7533 99.5269 26.38C99.3269 25.9933 99.0535 25.7 98.7069 25.5C98.3602 25.3 97.9669 25.2 97.5269 25.2C97.1135 25.2 96.7269 25.3 96.3669 25.5C96.0202 25.7 95.7402 25.9867 95.5269 26.36C95.3269 26.7333 95.2269 27.1933 95.2269 27.74C95.2269 28.26 95.3335 28.7133 95.5469 29.1C95.7602 29.4867 96.0402 29.7867 96.3869 30C96.7335 30.2133 97.1135 30.32 97.5269 30.32ZM97.8069 38.74C98.5002 38.74 99.1002 38.6333 99.6069 38.42C100.127 38.2067 100.527 37.9267 100.807 37.58C101.1 37.2467 101.247 36.9 101.247 36.54C101.247 36.02 101.06 35.66 100.687 35.46C100.314 35.26 99.7669 35.16 99.0469 35.16H97.1669C96.9669 35.16 96.7402 35.1467 96.4869 35.12C96.2469 35.1067 96.0069 35.0667 95.7669 35C95.3802 35.2667 95.1002 35.56 94.9269 35.88C94.7535 36.2133 94.6669 36.5333 94.6669 36.84C94.6669 37.4133 94.9402 37.8733 95.4869 38.22C96.0469 38.5667 96.8202 38.74 97.8069 38.74ZM107.096 35.26C106.643 35.26 106.276 35.1667 105.996 34.98C105.716 34.7933 105.509 34.52 105.376 34.16C105.243 33.7867 105.176 33.3467 105.176 32.84V19.08H107.016V32.96C107.016 33.24 107.063 33.44 107.156 33.56C107.263 33.68 107.383 33.74 107.516 33.74C107.569 33.74 107.623 33.74 107.676 33.74C107.729 33.7267 107.803 33.7133 107.896 33.7L108.156 35.1C108.023 35.14 107.876 35.1733 107.716 35.2C107.556 35.24 107.349 35.26 107.096 35.26ZM115.26 35.26C114.286 35.26 113.406 35.0333 112.62 34.58C111.833 34.1267 111.206 33.48 110.74 32.64C110.286 31.7867 110.06 30.7667 110.06 29.58C110.06 28.6867 110.193 27.8933 110.46 27.2C110.726 26.4933 111.086 25.8933 111.54 25.4C112.006 24.8933 112.533 24.5133 113.12 24.26C113.706 23.9933 114.306 23.86 114.92 23.86C115.853 23.86 116.64 24.0667 117.28 24.48C117.92 24.8933 118.406 25.4867 118.74 26.26C119.086 27.02 119.26 27.92 119.26 28.96C119.26 29.16 119.253 29.3467 119.24 29.52C119.226 29.6933 119.206 29.8533 119.18 30H111.86C111.9 30.7733 112.073 31.4467 112.38 32.02C112.7 32.58 113.12 33.02 113.64 33.34C114.16 33.6467 114.766 33.8 115.46 33.8C115.993 33.8 116.473 33.7267 116.9 33.58C117.34 33.42 117.766 33.2067 118.18 32.94L118.82 34.16C118.353 34.4667 117.826 34.7267 117.24 34.94C116.653 35.1533 115.993 35.26 115.26 35.26ZM111.84 28.7H117.66C117.66 27.6067 117.42 26.7733 116.94 26.2C116.473 25.6133 115.813 25.32 114.96 25.32C114.453 25.32 113.973 25.4533 113.52 25.72C113.08 25.9867 112.706 26.3667 112.4 26.86C112.106 27.3533 111.92 27.9667 111.84 28.7ZM132.586 23.48H136.586V24.84H132.586V23.48ZM132.446 28.02H136.546V29.38H132.446V28.02ZM139.346 18.46H140.946V36.56H139.346V18.46ZM135.706 18.94H137.286V35.64H135.706V18.94ZM131.686 20.76H133.286C133.286 22.3333 133.06 23.8467 132.606 25.3C132.153 26.74 131.426 28.0867 130.426 29.34C129.44 30.58 128.14 31.6867 126.526 32.66L125.546 31.46C126.96 30.6067 128.12 29.6467 129.026 28.58C129.933 27.5 130.6 26.3333 131.026 25.08C131.466 23.8133 131.686 22.4733 131.686 21.06V20.76ZM126.346 20.76H132.326V22.12H126.346V20.76ZM153.625 23.16H157.685V24.54H153.625V23.16ZM157.185 18.46H158.845V29.24H157.185V18.46ZM152.885 29.8C154.138 29.8 155.212 29.9333 156.105 30.2C157.012 30.4667 157.705 30.8533 158.185 31.36C158.665 31.8533 158.905 32.46 158.905 33.18C158.905 34.2467 158.365 35.0733 157.285 35.66C156.218 36.2467 154.752 36.54 152.885 36.54C151.018 36.54 149.545 36.2467 148.465 35.66C147.398 35.0733 146.865 34.2467 146.865 33.18C146.865 32.46 147.105 31.8533 147.585 31.36C148.078 30.8533 148.772 30.4667 149.665 30.2C150.572 29.9333 151.645 29.8 152.885 29.8ZM152.885 31.1C151.978 31.1 151.198 31.18 150.545 31.34C149.892 31.5 149.385 31.7333 149.025 32.04C148.678 32.3467 148.505 32.7267 148.505 33.18C148.505 33.6067 148.678 33.9733 149.025 34.28C149.385 34.5867 149.892 34.8267 150.545 35C151.198 35.16 151.978 35.24 152.885 35.24C153.805 35.24 154.585 35.16 155.225 35C155.878 34.8267 156.378 34.5867 156.725 34.28C157.085 33.9733 157.265 33.6067 157.265 33.18C157.265 32.7267 157.085 32.3467 156.725 32.04C156.378 31.7333 155.878 31.5 155.225 31.34C154.585 31.18 153.805 31.1 152.885 31.1ZM148.565 20.3H149.925V21.76C149.925 22.8667 149.712 23.9067 149.285 24.88C148.872 25.84 148.285 26.6867 147.525 27.42C146.765 28.14 145.885 28.6933 144.885 29.08L144.025 27.76C144.705 27.52 145.318 27.1933 145.865 26.78C146.425 26.3667 146.905 25.8933 147.305 25.36C147.718 24.8267 148.032 24.2533 148.245 23.64C148.458 23.0267 148.565 22.4 148.565 21.76V20.3ZM148.885 20.3H150.245V21.74C150.245 22.5133 150.425 23.2667 150.785 24C151.145 24.7333 151.658 25.38 152.325 25.94C152.992 26.5 153.758 26.94 154.625 27.26L153.785 28.58C152.798 28.22 151.938 27.7 151.205 27.02C150.472 26.3267 149.898 25.5267 149.485 24.62C149.085 23.7133 148.885 22.7533 148.885 21.74V20.3ZM144.545 19.78H154.205V21.14H144.545V19.78ZM170.523 19.62C171.79 19.62 172.917 19.8267 173.903 20.24C174.89 20.6533 175.67 21.2333 176.243 21.98C176.817 22.7267 177.103 23.6 177.103 24.6C177.103 25.6133 176.817 26.4933 176.243 27.24C175.67 27.9867 174.89 28.5667 173.903 28.98C172.917 29.3933 171.79 29.6 170.523 29.6C169.283 29.6 168.163 29.3933 167.163 28.98C166.177 28.5667 165.397 27.9867 164.823 27.24C164.25 26.4933 163.963 25.6133 163.963 24.6C163.963 23.6 164.25 22.7267 164.823 21.98C165.397 21.2333 166.177 20.6533 167.163 20.24C168.163 19.8267 169.283 19.62 170.523 19.62ZM170.523 20.96C169.577 20.96 168.73 21.1133 167.983 21.42C167.237 21.7267 166.643 22.1533 166.203 22.7C165.763 23.2333 165.543 23.8667 165.543 24.6C165.543 25.32 165.763 25.9533 166.203 26.5C166.643 27.0467 167.237 27.4733 167.983 27.78C168.73 28.0867 169.577 28.24 170.523 28.24C171.483 28.24 172.337 28.0867 173.083 27.78C173.83 27.4733 174.417 27.0467 174.843 26.5C175.283 25.9533 175.503 25.32 175.503 24.6C175.503 23.8667 175.283 23.2333 174.843 22.7C174.417 22.1533 173.83 21.7267 173.083 21.42C172.337 21.1133 171.483 20.96 170.523 20.96ZM162.363 32.78H178.763V34.16H162.363V32.78ZM180.762 32.94H197.162V34.32H180.762V32.94ZM188.102 29.08H189.742V33.52H188.102V29.08ZM182.762 19.8H195.122V25.28H184.442V28.9H182.802V23.96H193.482V21.16H182.762V19.8ZM182.802 28.2H195.542V29.56H182.802V28.2ZM203.633 32.94H220.033V34.32H203.633V32.94ZM210.973 29.08H212.613V33.52H210.973V29.08ZM205.633 19.8H217.993V25.28H207.313V28.9H205.673V23.96H216.353V21.16H205.633V19.8ZM205.673 28.2H218.413V29.56H205.673V28.2ZM223.811 20.38H235.451V21.74H223.811V20.38ZM222.031 32.54H238.371V33.92H222.031V32.54ZM234.551 20.38H236.191V22.2C236.191 22.96 236.178 23.7733 236.151 24.64C236.138 25.4933 236.085 26.44 235.991 27.48C235.898 28.52 235.738 29.6933 235.511 31L233.831 30.82C234.071 29.5933 234.238 28.4667 234.331 27.44C234.438 26.4133 234.498 25.4667 234.511 24.6C234.538 23.7333 234.551 22.9333 234.551 22.2V20.38ZM253.59 18.48H255.25V31.68H253.59V18.48ZM243.63 34.8H255.81V36.16H243.63V34.8ZM243.63 30.34H245.29V35.26H243.63V30.34ZM245.55 19.74C246.456 19.74 247.263 19.9267 247.97 20.3C248.676 20.6733 249.236 21.2 249.65 21.88C250.063 22.5467 250.27 23.3133 250.27 24.18C250.27 25.0467 250.063 25.82 249.65 26.5C249.236 27.1667 248.676 27.6933 247.97 28.08C247.263 28.4533 246.456 28.64 245.55 28.64C244.656 28.64 243.85 28.4533 243.13 28.08C242.423 27.6933 241.863 27.1667 241.45 26.5C241.036 25.82 240.83 25.0467 240.83 24.18C240.83 23.3133 241.036 22.5467 241.45 21.88C241.863 21.2 242.423 20.6733 243.13 20.3C243.85 19.9267 244.656 19.74 245.55 19.74ZM245.55 21.18C244.963 21.18 244.436 21.3067 243.97 21.56C243.503 21.8133 243.13 22.1667 242.85 22.62C242.583 23.0733 242.45 23.5933 242.45 24.18C242.45 24.78 242.583 25.3067 242.85 25.76C243.13 26.2 243.503 26.5467 243.97 26.8C244.436 27.0533 244.963 27.18 245.55 27.18C246.136 27.18 246.663 27.0533 247.13 26.8C247.61 26.5467 247.983 26.2 248.25 25.76C248.516 25.3067 248.65 24.78 248.65 24.18C248.65 23.5933 248.516 23.0733 248.25 22.62C247.983 22.1667 247.61 21.8133 247.13 21.56C246.663 21.3067 246.136 21.18 245.55 21.18ZM271.088 18.46H272.728V36.56H271.088V18.46ZM272.348 25.9H275.688V27.3H272.348V25.9ZM258.728 21.36H269.388V22.72H258.728V21.36ZM264.148 24.2C265.001 24.2 265.755 24.38 266.408 24.74C267.075 25.1 267.595 25.5933 267.968 26.22C268.355 26.8333 268.548 27.5467 268.548 28.36C268.548 29.1733 268.355 29.8933 267.968 30.52C267.595 31.1467 267.075 31.64 266.408 32C265.755 32.3467 265.001 32.52 264.148 32.52C263.295 32.52 262.535 32.3467 261.868 32C261.215 31.64 260.695 31.1467 260.308 30.52C259.921 29.8933 259.728 29.1733 259.728 28.36C259.728 27.5467 259.921 26.8333 260.308 26.22C260.695 25.5933 261.215 25.1 261.868 24.74C262.535 24.38 263.295 24.2 264.148 24.2ZM264.148 25.58C263.601 25.58 263.115 25.7 262.688 25.94C262.261 26.18 261.921 26.5067 261.668 26.92C261.428 27.3333 261.308 27.8133 261.308 28.36C261.308 28.9067 261.428 29.3933 261.668 29.82C261.921 30.2333 262.261 30.56 262.688 30.8C263.115 31.0267 263.601 31.14 264.148 31.14C264.681 31.14 265.161 31.0267 265.588 30.8C266.015 30.56 266.348 30.2333 266.588 29.82C266.841 29.3933 266.968 28.9067 266.968 28.36C266.968 27.8133 266.841 27.3333 266.588 26.92C266.348 26.5067 266.015 26.18 265.588 25.94C265.161 25.7 264.681 25.58 264.148 25.58ZM263.288 18.68H264.948V21.96H263.288V18.68ZM290.407 18.46H292.067V36.56H290.407V18.46ZM285.107 20.42H286.747C286.747 21.7267 286.587 22.9867 286.267 24.2C285.96 25.4133 285.473 26.5667 284.807 27.66C284.14 28.74 283.273 29.7467 282.207 30.68C281.14 31.6133 279.847 32.4467 278.327 33.18L277.447 31.84C279.193 31 280.633 30.02 281.767 28.9C282.9 27.78 283.74 26.5333 284.287 25.16C284.833 23.7733 285.107 22.28 285.107 20.68V20.42ZM278.287 20.42H285.807V21.76H278.287V20.42Z" fill="#1E1E1E"/>
</g>
<defs>
<clipPath id="clip0_67_50">
<rect width="345" height="54" fill="white"/>
</clipPath>
</defs>
</svg>
