<svg width="345" height="54" viewBox="0 0 345 54" fill="none" xmlns="http://www.w3.org/2000/svg">
<g clip-path="url(#clip0_67_51)">
<rect width="345" height="54" rx="10" fill="#FDDD0C"/>
<rect width="24" height="24" transform="translate(15 15)" fill="#FDDD0C"/>
<path d="M36.2806 33.424C35.9328 34.2275 35.5211 34.9672 35.0441 35.6473C34.3938 36.5743 33.8615 37.216 33.4512 37.5724C32.8151 38.1573 32.1337 38.4569 31.4039 38.4739C30.8801 38.4739 30.2483 38.3248 29.5129 38.0224C28.7751 37.7214 28.097 37.5724 27.477 37.5724C26.8268 37.5724 26.1294 37.7214 25.3835 38.0224C24.6365 38.3248 24.0347 38.4824 23.5745 38.498C22.8747 38.5278 22.1772 38.2198 21.481 37.5724C21.0367 37.1848 20.4808 36.5204 19.815 35.5791C19.1006 34.574 18.5133 33.4084 18.0531 32.0795C17.5603 30.6442 17.3133 29.2543 17.3133 27.9087C17.3133 26.3673 17.6464 25.0379 18.3135 23.9239C18.8378 23.029 19.5353 22.3231 20.4083 21.8049C21.2813 21.2868 22.2245 21.0227 23.2403 21.0058C23.7961 21.0058 24.525 21.1777 25.4308 21.5156C26.334 21.8546 26.914 22.0266 27.1682 22.0266C27.3583 22.0266 28.0026 21.8255 29.0948 21.4247C30.1276 21.0531 30.9993 20.8992 31.7134 20.9598C33.6485 21.116 35.1023 21.8788 36.0691 23.253C34.3385 24.3016 33.4824 25.7703 33.4994 27.6544C33.515 29.122 34.0474 30.3432 35.0938 31.3129C35.5679 31.7629 36.0975 32.1108 36.6867 32.3578C36.5589 32.7283 36.424 33.0833 36.2806 33.424V33.424ZM31.8426 15.9601C31.8426 17.1104 31.4224 18.1844 30.5848 19.1785C29.5739 20.3602 28.3513 21.0431 27.0254 20.9354C27.0085 20.7974 26.9987 20.6521 26.9987 20.4995C26.9987 19.3953 27.4794 18.2135 28.3331 17.2473C28.7593 16.758 29.3014 16.3512 29.9587 16.0267C30.6146 15.7071 31.235 15.5303 31.8185 15.5C31.8355 15.6538 31.8426 15.8076 31.8426 15.9601V15.9601Z" fill="#FDDD0C"/>
<path d="M56.02 35V20.34H57.86V27.7H57.9L64.04 20.34H66.14L61.54 25.9L66.84 35H64.78L60.38 27.36L57.86 30.36V35H56.02ZM71.2697 35.26C70.6697 35.26 70.1297 35.14 69.6497 34.9C69.1697 34.66 68.7897 34.3133 68.5097 33.86C68.243 33.3933 68.1097 32.8333 68.1097 32.18C68.1097 30.9933 68.6364 30.0867 69.6897 29.46C70.7564 28.82 72.4497 28.3733 74.7697 28.12C74.7697 27.6533 74.703 27.2133 74.5697 26.8C74.4497 26.3733 74.2297 26.0333 73.9097 25.78C73.5897 25.5133 73.1297 25.38 72.5297 25.38C71.903 25.38 71.3097 25.5067 70.7497 25.76C70.203 26 69.7097 26.26 69.2697 26.54L68.5697 25.28C68.903 25.0667 69.2897 24.8533 69.7297 24.64C70.1697 24.4133 70.6497 24.2267 71.1697 24.08C71.6897 23.9333 72.243 23.86 72.8297 23.86C73.7097 23.86 74.423 24.0467 74.9697 24.42C75.5297 24.7933 75.9364 25.3133 76.1897 25.98C76.4564 26.6333 76.5897 27.4133 76.5897 28.32V35H75.0897L74.9297 33.7H74.8697C74.363 34.1267 73.803 34.4933 73.1897 34.8C72.5897 35.1067 71.9497 35.26 71.2697 35.26ZM71.7897 33.78C72.3097 33.78 72.803 33.66 73.2697 33.42C73.7497 33.18 74.2497 32.8267 74.7697 32.36V29.34C73.5564 29.4733 72.5897 29.6667 71.8697 29.92C71.1497 30.16 70.6364 30.46 70.3297 30.82C70.023 31.1667 69.8697 31.58 69.8697 32.06C69.8697 32.6867 70.0564 33.1333 70.4297 33.4C70.803 33.6533 71.2564 33.78 71.7897 33.78ZM80.0392 35V19.08H81.8392V29.86H81.9192L86.5192 24.14H88.5592L84.9392 28.52L89.0392 35H87.0592L83.8792 29.76L81.8392 32.14V35H80.0392ZM93.3009 35.26C92.7009 35.26 92.1609 35.14 91.6809 34.9C91.2009 34.66 90.8209 34.3133 90.5409 33.86C90.2743 33.3933 90.1409 32.8333 90.1409 32.18C90.1409 30.9933 90.6676 30.0867 91.7209 29.46C92.7876 28.82 94.4809 28.3733 96.8009 28.12C96.8009 27.6533 96.7343 27.2133 96.6009 26.8C96.4809 26.3733 96.2609 26.0333 95.9409 25.78C95.6209 25.5133 95.1609 25.38 94.5609 25.38C93.9343 25.38 93.3409 25.5067 92.7809 25.76C92.2343 26 91.7409 26.26 91.3009 26.54L90.6009 25.28C90.9343 25.0667 91.3209 24.8533 91.7609 24.64C92.2009 24.4133 92.6809 24.2267 93.2009 24.08C93.7209 23.9333 94.2743 23.86 94.8609 23.86C95.7409 23.86 96.4543 24.0467 97.0009 24.42C97.5609 24.7933 97.9676 25.3133 98.2209 25.98C98.4876 26.6333 98.6209 27.4133 98.6209 28.32V35H97.1209L96.9609 33.7H96.9009C96.3943 34.1267 95.8343 34.4933 95.2209 34.8C94.6209 35.1067 93.9809 35.26 93.3009 35.26ZM93.8209 33.78C94.3409 33.78 94.8343 33.66 95.3009 33.42C95.7809 33.18 96.2809 32.8267 96.8009 32.36V29.34C95.5876 29.4733 94.6209 29.6667 93.9009 29.92C93.1809 30.16 92.6676 30.46 92.3609 30.82C92.0543 31.1667 91.9009 31.58 91.9009 32.06C91.9009 32.6867 92.0876 33.1333 92.4609 33.4C92.8343 33.6533 93.2876 33.78 93.8209 33.78ZM106.29 35.26C105.41 35.26 104.584 35.04 103.81 34.6C103.037 34.1467 102.417 33.5 101.95 32.66C101.497 31.8067 101.27 30.78 101.27 29.58C101.27 28.3667 101.497 27.34 101.95 26.5C102.417 25.6467 103.037 24.9933 103.81 24.54C104.584 24.0867 105.41 23.86 106.29 23.86C106.957 23.86 107.59 23.9867 108.19 24.24C108.804 24.4933 109.344 24.8667 109.81 25.36C110.277 25.8533 110.644 26.4533 110.91 27.16C111.177 27.8667 111.31 28.6733 111.31 29.58C111.31 30.78 111.077 31.8067 110.61 32.66C110.144 33.5 109.53 34.1467 108.77 34.6C108.01 35.04 107.184 35.26 106.29 35.26ZM106.29 33.74C106.917 33.74 107.464 33.5667 107.93 33.22C108.41 32.8733 108.784 32.3867 109.05 31.76C109.317 31.1333 109.45 30.4067 109.45 29.58C109.45 28.74 109.317 28.0067 109.05 27.38C108.784 26.7533 108.41 26.2667 107.93 25.92C107.464 25.5733 106.917 25.4 106.29 25.4C105.664 25.4 105.11 25.5733 104.63 25.92C104.164 26.2667 103.797 26.7533 103.53 27.38C103.277 28.0067 103.15 28.74 103.15 29.58C103.15 30.4067 103.277 31.1333 103.53 31.76C103.797 32.3867 104.164 32.8733 104.63 33.22C105.11 33.5667 105.664 33.74 106.29 33.74ZM124.852 23.48H128.852V24.84H124.852V23.48ZM124.712 28.02H128.812V29.38H124.712V28.02ZM131.612 18.46H133.212V36.56H131.612V18.46ZM127.972 18.94H129.552V35.64H127.972V18.94ZM123.952 20.76H125.552C125.552 22.3333 125.325 23.8467 124.872 25.3C124.419 26.74 123.692 28.0867 122.692 29.34C121.705 30.58 120.405 31.6867 118.792 32.66L117.812 31.46C119.225 30.6067 120.385 29.6467 121.292 28.58C122.199 27.5 122.865 26.3333 123.292 25.08C123.732 23.8133 123.952 22.4733 123.952 21.06V20.76ZM118.612 20.76H124.592V22.12H118.612V20.76ZM145.89 23.16H149.95V24.54H145.89V23.16ZM149.45 18.46H151.11V29.24H149.45V18.46ZM145.15 29.8C146.404 29.8 147.477 29.9333 148.37 30.2C149.277 30.4667 149.97 30.8533 150.45 31.36C150.93 31.8533 151.17 32.46 151.17 33.18C151.17 34.2467 150.63 35.0733 149.55 35.66C148.484 36.2467 147.017 36.54 145.15 36.54C143.284 36.54 141.81 36.2467 140.73 35.66C139.664 35.0733 139.13 34.2467 139.13 33.18C139.13 32.46 139.37 31.8533 139.85 31.36C140.344 30.8533 141.037 30.4667 141.93 30.2C142.837 29.9333 143.91 29.8 145.15 29.8ZM145.15 31.1C144.244 31.1 143.464 31.18 142.81 31.34C142.157 31.5 141.65 31.7333 141.29 32.04C140.944 32.3467 140.77 32.7267 140.77 33.18C140.77 33.6067 140.944 33.9733 141.29 34.28C141.65 34.5867 142.157 34.8267 142.81 35C143.464 35.16 144.244 35.24 145.15 35.24C146.07 35.24 146.85 35.16 147.49 35C148.144 34.8267 148.644 34.5867 148.99 34.28C149.35 33.9733 149.53 33.6067 149.53 33.18C149.53 32.7267 149.35 32.3467 148.99 32.04C148.644 31.7333 148.144 31.5 147.49 31.34C146.85 31.18 146.07 31.1 145.15 31.1ZM140.83 20.3H142.19V21.76C142.19 22.8667 141.977 23.9067 141.55 24.88C141.137 25.84 140.55 26.6867 139.79 27.42C139.03 28.14 138.15 28.6933 137.15 29.08L136.29 27.76C136.97 27.52 137.584 27.1933 138.13 26.78C138.69 26.3667 139.17 25.8933 139.57 25.36C139.984 24.8267 140.297 24.2533 140.51 23.64C140.724 23.0267 140.83 22.4 140.83 21.76V20.3ZM141.15 20.3H142.51V21.74C142.51 22.5133 142.69 23.2667 143.05 24C143.41 24.7333 143.924 25.38 144.59 25.94C145.257 26.5 146.024 26.94 146.89 27.26L146.05 28.58C145.064 28.22 144.204 27.7 143.47 27.02C142.737 26.3267 142.164 25.5267 141.75 24.62C141.35 23.7133 141.15 22.7533 141.15 21.74V20.3ZM136.81 19.78H146.47V21.14H136.81V19.78ZM162.789 19.62C164.056 19.62 165.182 19.8267 166.169 20.24C167.156 20.6533 167.936 21.2333 168.509 21.98C169.082 22.7267 169.369 23.6 169.369 24.6C169.369 25.6133 169.082 26.4933 168.509 27.24C167.936 27.9867 167.156 28.5667 166.169 28.98C165.182 29.3933 164.056 29.6 162.789 29.6C161.549 29.6 160.429 29.3933 159.429 28.98C158.442 28.5667 157.662 27.9867 157.089 27.24C156.516 26.4933 156.229 25.6133 156.229 24.6C156.229 23.6 156.516 22.7267 157.089 21.98C157.662 21.2333 158.442 20.6533 159.429 20.24C160.429 19.8267 161.549 19.62 162.789 19.62ZM162.789 20.96C161.842 20.96 160.996 21.1133 160.249 21.42C159.502 21.7267 158.909 22.1533 158.469 22.7C158.029 23.2333 157.809 23.8667 157.809 24.6C157.809 25.32 158.029 25.9533 158.469 26.5C158.909 27.0467 159.502 27.4733 160.249 27.78C160.996 28.0867 161.842 28.24 162.789 28.24C163.749 28.24 164.602 28.0867 165.349 27.78C166.096 27.4733 166.682 27.0467 167.109 26.5C167.549 25.9533 167.769 25.32 167.769 24.6C167.769 23.8667 167.549 23.2333 167.109 22.7C166.682 22.1533 166.096 21.7267 165.349 21.42C164.602 21.1133 163.749 20.96 162.789 20.96ZM154.629 32.78H171.029V34.16H154.629V32.78ZM173.027 32.94H189.427V34.32H173.027V32.94ZM180.367 29.08H182.007V33.52H180.367V29.08ZM175.027 19.8H187.387V25.28H176.707V28.9H175.067V23.96H185.747V21.16H175.027V19.8ZM175.067 28.2H187.807V29.56H175.067V28.2ZM195.898 32.94H212.298V34.32H195.898V32.94ZM203.238 29.08H204.878V33.52H203.238V29.08ZM197.898 19.8H210.258V25.28H199.578V28.9H197.938V23.96H208.618V21.16H197.898V19.8ZM197.938 28.2H210.678V29.56H197.938V28.2ZM216.077 20.38H227.717V21.74H216.077V20.38ZM214.297 32.54H230.637V33.92H214.297V32.54ZM226.817 20.38H228.457V22.2C228.457 22.96 228.444 23.7733 228.417 24.64C228.404 25.4933 228.35 26.44 228.257 27.48C228.164 28.52 228.004 29.6933 227.777 31L226.097 30.82C226.337 29.5933 226.504 28.4667 226.597 27.44C226.704 26.4133 226.764 25.4667 226.777 24.6C226.804 23.7333 226.817 22.9333 226.817 22.2V20.38ZM245.855 18.48H247.515V31.68H245.855V18.48ZM235.895 34.8H248.075V36.16H235.895V34.8ZM235.895 30.34H237.555V35.26H235.895V30.34ZM237.815 19.74C238.722 19.74 239.529 19.9267 240.235 20.3C240.942 20.6733 241.502 21.2 241.915 21.88C242.329 22.5467 242.535 23.3133 242.535 24.18C242.535 25.0467 242.329 25.82 241.915 26.5C241.502 27.1667 240.942 27.6933 240.235 28.08C239.529 28.4533 238.722 28.64 237.815 28.64C236.922 28.64 236.115 28.4533 235.395 28.08C234.689 27.6933 234.129 27.1667 233.715 26.5C233.302 25.82 233.095 25.0467 233.095 24.18C233.095 23.3133 233.302 22.5467 233.715 21.88C234.129 21.2 234.689 20.6733 235.395 20.3C236.115 19.9267 236.922 19.74 237.815 19.74ZM237.815 21.18C237.229 21.18 236.702 21.3067 236.235 21.56C235.769 21.8133 235.395 22.1667 235.115 22.62C234.849 23.0733 234.715 23.5933 234.715 24.18C234.715 24.78 234.849 25.3067 235.115 25.76C235.395 26.2 235.769 26.5467 236.235 26.8C236.702 27.0533 237.229 27.18 237.815 27.18C238.402 27.18 238.929 27.0533 239.395 26.8C239.875 26.5467 240.249 26.2 240.515 25.76C240.782 25.3067 240.915 24.78 240.915 24.18C240.915 23.5933 240.782 23.0733 240.515 22.62C240.249 22.1667 239.875 21.8133 239.395 21.56C238.929 21.3067 238.402 21.18 237.815 21.18ZM263.354 18.46H264.994V36.56H263.354V18.46ZM264.614 25.9H267.954V27.3H264.614V25.9ZM250.994 21.36H261.654V22.72H250.994V21.36ZM256.414 24.2C257.267 24.2 258.02 24.38 258.674 24.74C259.34 25.1 259.86 25.5933 260.234 26.22C260.62 26.8333 260.814 27.5467 260.814 28.36C260.814 29.1733 260.62 29.8933 260.234 30.52C259.86 31.1467 259.34 31.64 258.674 32C258.02 32.3467 257.267 32.52 256.414 32.52C255.56 32.52 254.8 32.3467 254.134 32C253.48 31.64 252.96 31.1467 252.574 30.52C252.187 29.8933 251.994 29.1733 251.994 28.36C251.994 27.5467 252.187 26.8333 252.574 26.22C252.96 25.5933 253.48 25.1 254.134 24.74C254.8 24.38 255.56 24.2 256.414 24.2ZM256.414 25.58C255.867 25.58 255.38 25.7 254.954 25.94C254.527 26.18 254.187 26.5067 253.934 26.92C253.694 27.3333 253.574 27.8133 253.574 28.36C253.574 28.9067 253.694 29.3933 253.934 29.82C254.187 30.2333 254.527 30.56 254.954 30.8C255.38 31.0267 255.867 31.14 256.414 31.14C256.947 31.14 257.427 31.0267 257.854 30.8C258.28 30.56 258.614 30.2333 258.854 29.82C259.107 29.3933 259.234 28.9067 259.234 28.36C259.234 27.8133 259.107 27.3333 258.854 26.92C258.614 26.5067 258.28 26.18 257.854 25.94C257.427 25.7 256.947 25.58 256.414 25.58ZM255.554 18.68H257.214V21.96H255.554V18.68ZM282.672 18.46H284.332V36.56H282.672V18.46ZM277.372 20.42H279.012C279.012 21.7267 278.852 22.9867 278.532 24.2C278.226 25.4133 277.739 26.5667 277.072 27.66C276.406 28.74 275.539 29.7467 274.472 30.68C273.406 31.6133 272.112 32.4467 270.592 33.18L269.712 31.84C271.459 31 272.899 30.02 274.032 28.9C275.166 27.78 276.006 26.5333 276.552 25.16C277.099 23.7733 277.372 22.28 277.372 20.68V20.42ZM270.552 20.42H278.072V21.76H270.552V20.42Z" fill="black"/>
<path d="M27 18C29.1696 18 31.1763 18.419 33.0201 19.2571C34.8638 20.0952 36.3215 21.2348 37.3928 22.676C38.4643 24.1171 39 25.6891 39 27.3918C39 29.0946 38.4643 30.6688 37.3928 32.1144C36.3215 33.5599 34.8661 34.7018 33.0268 35.5398C31.1875 36.3779 29.1786 36.797 27 36.797C26.3125 36.797 25.6027 36.7482 24.8705 36.6507C21.6919 38.8412 20 39.9498 19.7947 39.9763C19.6964 40.0118 19.6027 40.0074 19.5134 39.9631C19.4777 39.9365 19.4509 39.901 19.433 39.8566C19.4152 39.8123 19.4063 39.7724 19.4063 39.7369V39.6837C19.4598 39.3378 19.8661 37.8967 20.625 35.3603C18.9018 34.5089 17.5335 33.3804 16.5201 31.9747C15.5067 30.569 15 29.0414 15 27.3918C15 25.6891 15.5357 24.1171 16.6071 22.676C17.6786 21.2348 19.1362 20.0952 20.9799 19.2571C22.8237 18.419 24.8304 18 27 18Z" fill="black"/>
</g>
<defs>
<clipPath id="clip0_67_51">
<rect width="345" height="54" fill="white"/>
</clipPath>
</defs>
</svg>
