<svg width="236" height="39" viewBox="0 0 236 39" fill="none" xmlns="http://www.w3.org/2000/svg">
<g clip-path="url(#clip0_26_2)">
<path d="M12.2159 0.636363V37H2.34375V0.636363H12.2159ZM16.8945 37V0.636363H32.6616C35.4315 0.636363 37.7575 1.00923 39.6396 1.75497C41.5335 2.50071 42.9599 3.55421 43.9187 4.91548C44.8893 6.27675 45.3746 7.88068 45.3746 9.72727C45.3746 11.0649 45.0787 12.2841 44.4869 13.3849C43.9068 14.4858 43.0901 15.4091 42.0366 16.1548C40.9831 16.8887 39.752 17.3977 38.3434 17.6818V18.0369C39.9059 18.0961 41.3264 18.4927 42.6048 19.2266C43.8832 19.9486 44.9012 20.9489 45.6587 22.2273C46.4163 23.4938 46.7951 24.9853 46.7951 26.7017C46.7951 28.6903 46.2743 30.46 45.2326 32.0107C44.2028 33.5613 42.735 34.7805 40.8292 35.6683C38.9234 36.5561 36.6507 37 34.011 37H16.8945ZM26.7667 29.1165H31.3832C33.0404 29.1165 34.2833 28.8087 35.1119 28.1932C35.9405 27.5658 36.3548 26.6425 36.3548 25.4233C36.3548 24.571 36.1594 23.849 35.7688 23.2571C35.3782 22.6652 34.8219 22.2154 34.0998 21.9077C33.3896 21.5999 32.5314 21.446 31.5252 21.446H26.7667V29.1165ZM26.7667 15.3381H30.815C31.6791 15.3381 32.4426 15.2019 33.1055 14.9297C33.7683 14.6574 34.2833 14.2668 34.6502 13.7578C35.029 13.237 35.2184 12.6037 35.2184 11.858C35.2184 10.7334 34.8159 9.87524 34.011 9.28338C33.2061 8.67969 32.1881 8.37784 30.957 8.37784H26.7667V15.3381Z" fill="black"/>
<path d="M60.2539 0.636363H72.5408L80.9925 21.233H81.4187L89.8704 0.636363H102.157V37H92.4982V15.9773H92.2141L84.1175 36.7159H78.2937L70.1971 15.8352H69.913V37H60.2539V0.636363ZM114.577 37.4261C112.837 37.4261 111.299 37.142 109.961 36.5739C108.635 35.9938 107.594 35.1179 106.836 33.946C106.078 32.7741 105.7 31.2827 105.7 29.4716C105.7 27.9801 105.954 26.7076 106.463 25.6541C106.972 24.5888 107.682 23.7188 108.594 23.044C109.505 22.3693 110.565 21.8544 111.772 21.4993C112.991 21.1442 114.305 20.9134 115.714 20.8068C117.241 20.6884 118.466 20.5464 119.389 20.3807C120.324 20.2031 120.999 19.9605 121.413 19.6527C121.828 19.3331 122.035 18.9129 122.035 18.392V18.321C122.035 17.6108 121.763 17.0663 121.218 16.6875C120.674 16.3087 119.975 16.1193 119.123 16.1193C118.188 16.1193 117.424 16.3265 116.832 16.7408C116.252 17.1432 115.903 17.7647 115.785 18.6051H106.765C106.883 16.9479 107.41 15.4209 108.345 14.0241C109.292 12.6155 110.671 11.491 112.482 10.6506C114.293 9.7983 116.554 9.37216 119.265 9.37216C121.218 9.37216 122.97 9.60298 124.521 10.0646C126.071 10.5144 127.391 11.1477 128.48 11.9645C129.569 12.7694 130.398 13.7164 130.966 14.8054C131.546 15.8826 131.836 17.0545 131.836 18.321V37H122.674V33.1648H122.461C121.916 34.1828 121.254 35.0054 120.472 35.6328C119.703 36.2602 118.821 36.7159 117.827 37C116.844 37.2841 115.761 37.4261 114.577 37.4261ZM117.773 31.2472C118.519 31.2472 119.218 31.0933 119.869 30.7855C120.531 30.4777 121.07 30.0339 121.484 29.4538C121.899 28.8738 122.106 28.1695 122.106 27.3409V25.0682C121.845 25.1747 121.567 25.2753 121.271 25.37C120.987 25.4647 120.679 25.5535 120.348 25.6364C120.028 25.7192 119.685 25.7962 119.318 25.8672C118.963 25.9382 118.59 26.0033 118.2 26.0625C117.442 26.1809 116.821 26.3762 116.335 26.6484C115.862 26.9089 115.507 27.2344 115.27 27.625C115.045 28.0038 114.933 28.4299 114.933 28.9034C114.933 29.661 115.199 30.241 115.732 30.6435C116.264 31.0459 116.945 31.2472 117.773 31.2472ZM161.448 18.6051H152.428C152.381 18.0488 152.185 17.5694 151.842 17.1669C151.499 16.7644 151.055 16.4567 150.51 16.2436C149.978 16.0187 149.386 15.9062 148.735 15.9062C147.894 15.9062 147.172 16.0601 146.569 16.3679C145.965 16.6757 145.669 17.1136 145.681 17.6818C145.669 18.0843 145.841 18.4571 146.196 18.8004C146.563 19.1437 147.267 19.41 148.309 19.5994L153.849 20.5938C156.642 21.1027 158.72 21.9609 160.081 23.1683C161.454 24.3639 162.146 25.9678 162.158 27.9801C162.146 29.9214 161.566 31.6082 160.418 33.0405C159.282 34.4609 157.725 35.5618 155.748 36.343C153.783 37.1125 151.54 37.4972 149.019 37.4972C144.852 37.4972 141.591 36.6449 139.236 34.9403C136.892 33.2358 135.584 30.9867 135.312 28.1932H145.042C145.172 29.0573 145.598 29.7261 146.32 30.1996C147.054 30.6612 147.977 30.892 149.09 30.892C149.99 30.892 150.729 30.7382 151.309 30.4304C151.901 30.1226 152.203 29.6847 152.215 29.1165C152.203 28.5956 151.943 28.1813 151.434 27.8736C150.937 27.5658 150.155 27.3172 149.09 27.1278L144.26 26.2756C141.479 25.7902 139.395 24.867 138.01 23.5057C136.626 22.1444 135.939 20.3925 135.951 18.25C135.939 16.3561 136.436 14.7521 137.442 13.4382C138.46 12.1125 139.91 11.1063 141.792 10.4197C143.686 9.72135 145.93 9.37216 148.522 9.37216C152.464 9.37216 155.571 10.1889 157.844 11.8224C160.128 13.456 161.33 15.7169 161.448 18.6051ZM182.178 9.72727V16.8295H164.209V9.72727H182.178ZM167.689 3.19318H177.49V28.2287C177.49 28.6075 177.555 28.9271 177.686 29.1875C177.816 29.4361 178.017 29.6255 178.289 29.7557C178.561 29.8741 178.911 29.9332 179.337 29.9332C179.633 29.9332 179.976 29.8977 180.367 29.8267C180.769 29.7557 181.065 29.6965 181.254 29.6491L182.675 36.5384C182.237 36.6686 181.61 36.8284 180.793 37.0178C179.988 37.2071 179.029 37.3314 177.916 37.3906C175.667 37.509 173.779 37.2782 172.252 36.6982C170.725 36.1063 169.577 35.1771 168.808 33.9105C168.038 32.6439 167.665 31.0578 167.689 29.152V3.19318ZM198.952 37.4972C196.04 37.4972 193.531 36.9408 191.424 35.8281C189.329 34.7036 187.713 33.0937 186.577 30.9986C185.452 28.8916 184.89 26.3703 184.89 23.4347C184.89 20.6174 185.458 18.1553 186.594 16.0483C187.731 13.9413 189.335 12.3018 191.406 11.13C193.478 9.9581 195.922 9.37216 198.739 9.37216C200.799 9.37216 202.663 9.69176 204.332 10.331C206.001 10.9702 207.428 11.8994 208.612 13.1186C209.795 14.326 210.707 15.7938 211.346 17.522C211.985 19.2502 212.305 21.1974 212.305 23.3636V25.6364H187.944V20.2386H203.285C203.273 19.4574 203.072 18.7708 202.681 18.179C202.302 17.5753 201.787 17.1077 201.136 16.7763C200.497 16.433 199.769 16.2614 198.952 16.2614C198.159 16.2614 197.431 16.433 196.768 16.7763C196.106 17.1077 195.573 17.5694 195.17 18.1612C194.78 18.7531 194.573 19.4455 194.549 20.2386V26.0625C194.549 26.9384 194.732 27.7197 195.099 28.4062C195.466 29.0928 195.993 29.6314 196.68 30.022C197.366 30.4126 198.195 30.608 199.165 30.608C199.84 30.608 200.456 30.5133 201.012 30.3239C201.58 30.1345 202.066 29.8622 202.468 29.5071C202.871 29.1402 203.166 28.7022 203.356 28.1932H212.305C211.997 30.0871 211.269 31.7325 210.121 33.1293C208.973 34.5142 207.451 35.5914 205.558 36.3608C203.675 37.1184 201.474 37.4972 198.952 37.4972ZM216.304 37V9.72727H225.821V14.9119H226.105C226.602 12.9943 227.39 11.5916 228.467 10.7038C229.556 9.81605 230.828 9.37216 232.284 9.37216C232.71 9.37216 233.131 9.40767 233.545 9.47869C233.971 9.53788 234.379 9.62666 234.77 9.74503V18.108C234.285 17.9422 233.687 17.8179 232.977 17.7351C232.267 17.6522 231.657 17.6108 231.148 17.6108C230.189 17.6108 229.325 17.8298 228.556 18.2678C227.798 18.6939 227.2 19.2976 226.762 20.0788C226.324 20.8482 226.105 21.7538 226.105 22.7955V37H216.304Z" fill="#3E9BE9"/>
</g>
<defs>
<clipPath id="clip0_26_2">
<rect width="236" height="39" fill="white"/>
</clipPath>
</defs>
</svg>
